<mxfile host="app.diagrams.net" modified="2023-07-12T13:40:03.265Z" agent="Mozilla/5.0 (Windows NT 10.0; Win64; x64; rv:109.0) Gecko/20100101 Firefox/115.0" version="21.6.2" etag="devYzPCXqMRFTTN0HhPK" type="github">
  <diagram name="Seite-1" id="yx2UYYiwQNyXZPBNuhHp">
    <mxGraphModel>
      <root>
        <mxCell id="0" />
        <mxCell id="1" parent="0" />
      </root>
    </mxGraphModel>
  </diagram>
</mxfile>
